<svg xmlns="http://www.w3.org/2000/svg" viewBox="0 0 400 500" width="400" height="500">
  <defs>
    <linearGradient id="bg3" x1="0" y1="0" x2="0" y2="1">
      <stop offset="0%" stop-color="#004e64"/>
      <stop offset="100%" stop-color="#002a38"/>
    </linearGradient>
  </defs>
  <rect width="400" height="500" fill="url(#bg3)" rx="20"/>
  <!-- Body -->
  <ellipse cx="200" cy="380" rx="85" ry="100" fill="#ff6b35"/>
  <!-- Jersey number -->
  <text x="200" y="400" text-anchor="middle" font-family="Arial Black,sans-serif" font-size="72" font-weight="900" fill="white" opacity="0.9">24</text>
  <!-- Head -->
  <circle cx="200" cy="220" r="65" fill="#f1c27d"/>
  <!-- Hair -->
  <ellipse cx="200" cy="185" rx="58" ry="40" fill="#d4a020"/>
  <!-- Eyes -->
  <ellipse cx="178" cy="225" rx="10" ry="12" fill="white"/>
  <ellipse cx="222" cy="225" rx="10" ry="12" fill="white"/>
  <circle cx="180" cy="227" r="5" fill="#1a1a2e"/>
  <circle cx="224" cy="227" r="5" fill="#1a1a2e"/>
  <!-- Smile -->
  <path d="M175 250 Q200 275 225 250" stroke="#1a1a2e" stroke-width="3" fill="none" stroke-linecap="round"/>
  <!-- Headband -->
  <rect x="142" y="198" width="116" height="12" rx="6" fill="#004e64"/>
  <!-- Arms left -->
  <ellipse cx="120" cy="340" rx="22" ry="50" fill="#f1c27d" transform="rotate(-15 120 340)"/>
  <!-- Arms right holding ball -->
  <ellipse cx="280" cy="310" rx="22" ry="50" fill="#f1c27d" transform="rotate(15 280 310)"/>
  <!-- Basketball -->
  <circle cx="310" cy="260" r="35" fill="#f5c542"/>
  <path d="M275 260 Q310 240 345 260" stroke="#d4a020" stroke-width="2" fill="none"/>
  <path d="M310 225 Q290 260 310 295" stroke="#d4a020" stroke-width="2" fill="none"/>
  <!-- Shoes -->
  <ellipse cx="165" cy="475" rx="35" ry="15" fill="#004e64"/>
  <ellipse cx="235" cy="475" rx="35" ry="15" fill="#004e64"/>
</svg>